<svg width="40" height="40" viewBox="0 0 40 40" fill="none" xmlns="http://www.w3.org/2000/svg">
<mask id="mask0_2_254" style="mask-type:luminance" maskUnits="userSpaceOnUse" x="0" y="0" width="40" height="40">
<path d="M39.2 0H0V39.2H39.2V0Z" fill="white"/>
</mask>
<g mask="url(#mask0_2_254)">
<mask id="mask1_2_254" style="mask-type:luminance" maskUnits="userSpaceOnUse" x="0" y="0" width="40" height="40">
<path d="M39.2 0H0V39.2H39.2V0Z" fill="#4EDEFF"/>
</mask>
<g mask="url(#mask1_2_254)">
<mask id="mask2_2_254" style="mask-type:luminance" maskUnits="userSpaceOnUse" x="0" y="0" width="40" height="40">
<path d="M39.2 0H0V39.2H39.2V0Z" fill="white"/>
<circle cx="26.9609" cy="23.9609" r="12.9658" fill="black"/>
</mask>
<g mask="url(#mask2_2_254)">
<path d="M19.2799 6.33229C22.6283 3.65276 25.9398 2.67017 28.2843 4.02393C30.3796 5.23404 31.3175 8.04321 30.9235 11.9354C30.8903 12.2676 30.8438 12.6056 30.792 12.9474L30.4702 14.6853C30.469 14.6848 30.4674 14.6842 30.466 14.6836C30.4648 14.6886 30.4639 14.6937 30.4624 14.6986L28.834 14.0988C28.8342 14.0981 28.8331 14.097 28.8331 14.0964C27.722 13.75 26.5895 13.4766 25.4427 13.2785L25.4262 13.2745L23.1368 12.9686L23.1348 12.9684C23.1323 12.9648 23.129 12.9623 23.1263 12.9587C21.8483 12.8275 20.5644 12.7622 19.2799 12.7629C17.9924 12.7621 16.706 12.8292 15.4258 12.9638C14.6767 14.0044 13.9812 15.0824 13.3418 16.1937C12.6991 17.3064 12.115 18.4521 11.5919 19.6257C12.115 20.7994 12.6991 21.945 13.3418 23.0577C13.9822 24.1736 14.6799 25.2556 15.4322 26.2993C15.4332 26.2993 15.4344 26.2994 15.4355 26.2996L15.4336 26.3026L15.4327 26.3044L15.4339 26.3061L16.8668 28.135L16.8766 28.1452C17.6182 29.0356 18.4168 29.8766 19.2676 30.6632L19.2812 30.6776L20.6096 31.7716C20.6052 31.7758 20.6008 31.78 20.5963 31.784C20.598 31.7856 20.5999 31.7869 20.6018 31.7882L19.1795 32.9976L19.177 32.9996C16.8747 34.817 14.5963 35.8326 12.6403 35.8326C11.8123 35.8449 10.9959 35.6362 10.2755 35.2277C8.17999 34.0176 7.24223 31.2082 7.63613 27.3161C7.67044 26.9742 7.71745 26.6258 7.77209 26.2738C3.77821 24.7102 1.26978 22.3346 1.26978 19.6257C1.26978 17.2056 3.23305 14.9861 6.79872 13.3833C7.11261 13.2421 7.43921 13.1074 7.77209 12.9803C7.71745 12.6269 7.67044 12.2773 7.63613 11.9354C7.24223 8.04321 8.17999 5.23404 10.2755 4.02393C12.62 2.67017 15.9315 3.65276 19.2799 6.33229ZM9.41901 26.842C9.38977 27.0606 9.36309 27.2754 9.34276 27.489C9.02252 30.6089 9.67308 32.8837 11.1149 33.7317L11.1357 33.7416C12.672 34.6289 15.202 33.9234 17.971 31.784C16.7064 30.5933 15.5459 29.2966 14.5019 27.9085C12.7803 27.6989 11.0797 27.3421 9.41901 26.842ZM10.7138 21.7917C10.312 22.8902 9.98225 24.0138 9.72649 25.1552C10.8239 25.4965 11.9421 25.7662 13.0743 25.9632L13.1283 25.975C12.6949 25.3153 12.2693 24.6213 11.8575 23.917C11.4458 23.2129 11.0671 22.5024 10.7138 21.7917ZM8.10124 14.6937C7.89791 14.7785 7.69841 14.8633 7.50271 14.948C4.63721 16.2408 2.98525 17.9454 2.98525 19.6257C2.98525 21.399 4.86213 23.2396 8.09996 24.568C8.49923 22.8774 9.04169 21.2242 9.72143 19.6257C9.04297 18.0306 8.50092 16.3806 8.10124 14.6937ZM13.1219 13.2854C11.9744 13.486 10.841 13.7608 9.72905 14.1078C9.98057 15.227 10.3033 16.329 10.6951 17.4072L10.7075 17.4585C11.0659 16.7466 11.4407 16.045 11.8512 15.3344C12.2616 14.6238 12.6873 13.9425 13.1219 13.2854ZM12.6568 5.13617C12.1245 5.12376 11.5983 5.25271 11.1319 5.50988C9.68392 6.34684 9.02637 8.61269 9.33903 11.7259L9.33892 11.7626C9.35924 11.9761 9.38592 12.191 9.41516 12.4083C11.0765 11.9115 12.7769 11.556 14.4982 11.3456C15.5427 9.95703 16.704 8.6604 17.9698 7.46996C15.9836 5.93447 14.1194 5.13617 12.6568 5.13617ZM27.4316 5.50861C26.9691 5.25304 26.4474 5.12408 25.9192 5.13463L25.9054 5.13491C24.4428 5.13491 22.5787 5.93319 20.5926 7.46868C21.8574 8.65829 23.0179 9.95407 24.0616 11.3418C25.7834 11.5512 27.4838 11.908 29.1446 12.4083C29.175 12.191 29.2004 11.9749 29.222 11.7613C29.5398 8.62796 28.8867 6.34883 27.4316 5.50861ZM19.2736 8.5746C18.4139 9.36816 17.6072 10.2174 16.8591 11.1168C17.652 11.066 18.4568 11.0406 19.2736 11.0406C20.097 11.0406 20.9038 11.0685 21.6943 11.1168C20.944 10.2172 20.1354 9.36792 19.2736 8.5746Z" fill="#4EDEFF"/>
<path d="M19.2798 6.33229C22.6283 3.65276 25.9396 2.67017 28.2842 4.02393C30.3796 5.23404 31.3174 8.04321 30.9235 11.9354C30.8903 12.2676 30.8436 12.6056 30.7922 12.9474L30.4702 14.6853L30.4662 14.6836C30.465 14.6886 30.4638 14.6937 30.4626 14.6986L28.834 14.0988L28.8332 14.0964C27.7222 13.75 26.5894 13.4766 25.4427 13.2785L25.4262 13.2745L23.1367 12.9686L23.1348 12.9684C23.1323 12.9648 23.1291 12.9623 23.1263 12.9587C21.8484 12.8275 20.5646 12.7622 19.2798 12.7629C17.9924 12.7621 16.706 12.8292 15.4258 12.9638C14.6767 14.0044 13.9812 15.0824 13.3418 16.1937C12.6991 17.3064 12.115 18.4521 11.5919 19.6257C12.115 20.7994 12.6991 21.945 13.3418 23.0577C13.9822 24.1736 14.6799 25.2556 15.4322 26.2993L15.4355 26.2996L15.4336 26.3026L15.4327 26.3044L15.4339 26.3061L16.8668 28.135L16.8766 28.1452C17.6182 29.0356 18.4168 29.8766 19.2675 30.6632L19.2814 30.6776L20.6096 31.7716C20.6052 31.7758 20.6008 31.78 20.5964 31.784L20.6016 31.7882L19.1796 32.9976L19.177 32.9996C16.8747 34.8173 14.5963 35.8326 12.6403 35.8326C11.8122 35.8449 10.9959 35.6362 10.2755 35.2277C8.17999 34.0176 7.2422 31.2082 7.63614 27.3161C7.67044 26.9742 7.71746 26.6258 7.7721 26.2738C3.7782 24.7102 1.26978 22.3346 1.26978 19.6257C1.26978 17.2056 3.23306 14.9861 6.79873 13.3833C7.11262 13.2421 7.43922 13.1074 7.7721 12.9803C7.71746 12.6269 7.67044 12.2773 7.63614 11.9354C7.2422 8.04321 8.17999 5.23404 10.2755 4.02393C12.62 2.67017 15.9315 3.65276 19.2798 6.33229ZM9.419 26.842C9.38978 27.0606 9.3631 27.2754 9.34276 27.489C9.02252 30.6089 9.67309 32.8837 11.1149 33.7317L11.1357 33.7416C12.672 34.6289 15.202 33.9234 17.971 31.784C16.7064 30.5933 15.5459 29.2966 14.5019 27.9085C12.7802 27.6989 11.0797 27.3421 9.419 26.842ZM10.7138 21.7917C10.312 22.8902 9.98226 24.0138 9.7265 25.1552C10.8239 25.4965 11.9421 25.7662 13.0743 25.9632L13.1283 25.975C12.6949 25.3153 12.2693 24.6213 11.8575 23.917C11.4458 23.2129 11.0671 22.5024 10.7138 21.7917ZM8.10123 14.6937C7.89791 14.7785 7.69842 14.8633 7.5027 14.948C4.63722 16.2408 2.98526 17.9454 2.98526 19.6257C2.98526 21.399 4.86214 23.2396 8.09997 24.568C8.49923 22.8774 9.0417 21.2242 9.72142 19.6257C9.04298 18.0306 8.50093 16.3806 8.10123 14.6937ZM13.1219 13.2854C11.9744 13.486 10.841 13.7608 9.72906 14.1078C9.98056 15.227 10.3033 16.329 10.6951 17.4072L10.7075 17.4585C11.0659 16.7466 11.4407 16.045 11.8512 15.3344C12.2616 14.6238 12.6873 13.9425 13.1219 13.2854ZM12.6568 5.13617C12.1245 5.12376 11.5983 5.25271 11.1319 5.50988C9.68391 6.34684 9.02638 8.61269 9.33903 11.7259L9.33891 11.7626C9.35924 11.9761 9.38593 12.191 9.41517 12.4083C11.0765 11.9115 12.7769 11.556 14.4982 11.3456C15.5427 9.95703 16.704 8.6604 17.9696 7.46996C15.9836 5.93447 14.1194 5.13617 12.6568 5.13617ZM27.4316 5.50861C26.9691 5.25304 26.4474 5.12408 25.9192 5.13463L25.9055 5.13491C24.4428 5.13491 22.5787 5.93319 20.5924 7.46868C21.8572 8.65829 23.0179 9.95407 24.0616 11.3418C25.7832 11.5512 27.4839 11.908 29.1446 12.4083C29.1751 12.191 29.2004 11.9749 29.2222 11.7613C29.5398 8.62796 28.8867 6.34883 27.4316 5.50861ZM19.2735 8.5746C18.4138 9.36816 17.6074 10.2174 16.8591 11.1168C17.6519 11.066 18.457 11.0406 19.2735 11.0406C20.097 11.0406 20.9039 11.0685 21.6943 11.1168C20.9439 10.2172 20.1354 9.36792 19.2735 8.5746Z" fill="#4EDEFF"/>
</g>
</g>
 </g>
<g clip-path="url(#clip0_2_254)">
<path d="M26.9609 33.9219C32.459 33.9219 36.9219 29.459 36.9219 23.9609C36.9219 18.4629 32.459 14 26.9609 14C21.4629 14 17 18.4629 17 23.9609C17 29.459 21.4629 33.9219 26.9609 33.9219ZM26.9609 32.2617C22.3711 32.2617 18.6602 28.5508 18.6602 23.9609C18.6602 19.3711 22.3711 15.6602 26.9609 15.6602C31.5508 15.6602 35.2617 19.3711 35.2617 23.9609C35.2617 28.5508 31.5508 32.2617 26.9609 32.2617Z" fill="#4EDEFF"/>
<path d="M21.5605 24.9863C21.5605 25.582 21.9707 25.9824 22.5566 25.9824H24.9102V28.3262C24.9102 28.9414 25.3105 29.332 25.9062 29.332H27.9766C28.582 29.332 28.9727 28.9414 28.9727 28.3262V25.9824H31.3262C31.9316 25.9824 32.332 25.582 32.332 24.9863V22.9063C32.332 22.3203 31.9316 21.9102 31.3262 21.9102H28.9727V19.5762C28.9727 18.9707 28.582 18.5703 27.9766 18.5703H25.9062C25.3105 18.5703 24.9102 18.9707 24.9102 19.5762V21.9102H22.5566C21.9609 21.9102 21.5605 22.3203 21.5605 22.9063V24.9863Z" fill="#4EDEFF"/>
</g>
<defs>
<clipPath id="clip0_2_254">
<rect x="17" y="14" width="20.2832" height="19.9316" rx="9.9658" fill="white"/>
</clipPath>
</defs>
</svg>
