<svg width="244" height="82" viewBox="0 0 244 82" fill="none" xmlns="http://www.w3.org/2000/svg">
<rect width="244" height="82" fill="#00242C"/>
<mask id="mask0_2_253" style="mask-type:luminance" maskUnits="userSpaceOnUse" x="32" y="21" width="40" height="40">
<path d="M71.2 21H32V60.2H71.2V21Z" fill="white"/>
</mask>
<g mask="url(#mask0_2_253)">
<mask id="mask1_2_253" style="mask-type:luminance" maskUnits="userSpaceOnUse" x="32" y="21" width="40" height="40">
<path d="M71.2 21H32V60.2H71.2V21Z" fill="#4EDEFF"/>
</mask>
<g mask="url(#mask1_2_253)">
<path d="M51.2799 27.3323C54.6283 24.6528 57.9398 23.6702 60.2843 25.0239C62.3796 26.234 63.3175 29.0432 62.9235 32.9354C62.8903 33.2676 62.8438 33.6056 62.792 33.9474L62.4702 35.6853C62.469 35.6848 62.4674 35.6842 62.466 35.6836C62.4648 35.6886 62.4639 35.6937 62.4624 35.6986L60.834 35.0988C60.8342 35.0981 60.8331 35.097 60.8331 35.0964C59.722 34.75 58.5895 34.4766 57.4427 34.2785L57.4262 34.2745L55.1368 33.9686L55.1348 33.9684C55.1323 33.9648 55.129 33.9623 55.1263 33.9587C53.8483 33.8275 52.5644 33.7622 51.2799 33.7629C49.9924 33.7621 48.706 33.8292 47.4258 33.9638C46.6767 35.0044 45.9812 36.0824 45.3418 37.1937C44.6991 38.3064 44.115 39.4521 43.5919 40.6257C44.115 41.7994 44.6991 42.945 45.3418 44.0577C45.9822 45.1736 46.6799 46.2556 47.4322 47.2993C47.4332 47.2993 47.4344 47.2994 47.4355 47.2996L47.4336 47.3026L47.4327 47.3044L47.4339 47.3061L48.8668 49.135L48.8766 49.1452C49.6182 50.0356 50.4168 50.8766 51.2676 51.6632L51.2812 51.6776L52.6096 52.7716C52.6052 52.7758 52.6008 52.78 52.5963 52.784C52.598 52.7856 52.5999 52.7869 52.6018 52.7882L51.1795 53.9976L51.177 53.9996C48.8747 55.817 46.5963 56.8326 44.6403 56.8326C43.8123 56.8449 42.9959 56.6362 42.2755 56.2277C40.18 55.0176 39.2422 52.2082 39.6361 48.3161C39.6704 47.9742 39.7175 47.6258 39.7721 47.2738C35.7782 45.7102 33.2698 43.3346 33.2698 40.6257C33.2698 38.2056 35.2331 35.9861 38.7987 34.3833C39.1126 34.2421 39.4392 34.1074 39.7721 33.9803C39.7175 33.6269 39.6704 33.2773 39.6361 32.9354C39.2422 29.0432 40.18 26.234 42.2755 25.0239C44.62 23.6702 47.9315 24.6528 51.2799 27.3323ZM41.419 47.842C41.3898 48.0606 41.3631 48.2754 41.3428 48.489C41.0225 51.6089 41.6731 53.8837 43.1149 54.7317L43.1357 54.7416C44.672 55.6289 47.202 54.9234 49.971 52.784C48.7064 51.5933 47.5459 50.2966 46.5019 48.9085C44.7803 48.6989 43.0797 48.3421 41.419 47.842ZM42.7138 42.7917C42.312 43.8902 41.9823 45.0138 41.7265 46.1552C42.8239 46.4965 43.9421 46.7662 45.0743 46.9632L45.1283 46.975C44.6949 46.3153 44.2693 45.6213 43.8575 44.917C43.4458 44.2129 43.0671 43.5024 42.7138 42.7917ZM40.1012 35.6937C39.8979 35.7785 39.6984 35.8633 39.5027 35.948C36.6372 37.2408 34.9853 38.9454 34.9853 40.6257C34.9853 42.399 36.8621 44.2396 40.1 45.568C40.4992 43.8774 41.0417 42.2242 41.7214 40.6257C41.043 39.0306 40.5009 37.3806 40.1012 35.6937ZM45.1219 34.2854C43.9744 34.486 42.841 34.7608 41.7291 35.1078C41.9806 36.227 42.3033 37.329 42.6951 38.4072L42.7075 38.4585C43.0659 37.7466 43.4407 37.045 43.8512 36.3344C44.2616 35.6238 44.6873 34.9425 45.1219 34.2854ZM44.6568 26.1362C44.1245 26.1238 43.5983 26.2527 43.1319 26.5099C41.6839 27.3468 41.0264 29.6127 41.339 32.7259L41.3389 32.7626C41.3592 32.9761 41.3859 33.191 41.4152 33.4083C43.0765 32.9115 44.7769 32.556 46.4982 32.3456C47.5427 30.957 48.704 29.6604 49.9698 28.47C47.9836 26.9345 46.1194 26.1362 44.6568 26.1362ZM59.4316 26.5086C58.9691 26.253 58.4474 26.1241 57.9192 26.1346L57.9054 26.1349C56.4428 26.1349 54.5787 26.9332 52.5926 28.4687C53.8574 29.6583 55.0179 30.9541 56.0616 32.3418C57.7834 32.5512 59.4838 32.908 61.1446 33.4083C61.175 33.191 61.2004 32.9749 61.222 32.7613C61.5398 29.628 60.8867 27.3488 59.4316 26.5086ZM51.2736 29.5746C50.4139 30.3682 49.6072 31.2174 48.8591 32.1168C49.652 32.066 50.4568 32.0406 51.2736 32.0406C52.097 32.0406 52.9038 32.0685 53.6943 32.1168C52.944 31.2172 52.1354 30.3679 51.2736 29.5746Z" fill="#4EDEFF"/>
<path d="M51.2798 27.3323C54.6283 24.6528 57.9396 23.6702 60.2842 25.0239C62.3796 26.234 63.3174 29.0432 62.9235 32.9354C62.8903 33.2676 62.8436 33.6056 62.7922 33.9474L62.4702 35.6853L62.4662 35.6836C62.465 35.6886 62.4638 35.6937 62.4626 35.6986L60.834 35.0988L60.8332 35.0964C59.7222 34.75 58.5894 34.4766 57.4427 34.2785L57.4262 34.2745L55.1367 33.9686L55.1348 33.9684C55.1323 33.9648 55.1291 33.9623 55.1263 33.9587C53.8484 33.8275 52.5646 33.7622 51.2798 33.7629C49.9924 33.7621 48.706 33.8292 47.4258 33.9638C46.6767 35.0044 45.9812 36.0824 45.3418 37.1937C44.6991 38.3064 44.115 39.4521 43.5919 40.6257C44.115 41.7994 44.6991 42.945 45.3418 44.0577C45.9822 45.1736 46.6799 46.2556 47.4322 47.2993L47.4355 47.2996L47.4336 47.3026L47.4327 47.3044L47.4339 47.3061L48.8668 49.135L48.8766 49.1452C49.6182 50.0356 50.4168 50.8766 51.2675 51.6632L51.2814 51.6776L52.6096 52.7716C52.6052 52.7758 52.6008 52.78 52.5964 52.784L52.6016 52.7882L51.1796 53.9976L51.177 53.9996C48.8747 55.8173 46.5963 56.8326 44.6403 56.8326C43.8122 56.8449 42.9959 56.6362 42.2755 56.2277C40.18 55.0176 39.2422 52.2082 39.6361 48.3161C39.6704 47.9742 39.7175 47.6258 39.7721 47.2738C35.7782 45.7102 33.2698 43.3346 33.2698 40.6257C33.2698 38.2056 35.2331 35.9861 38.7987 34.3833C39.1126 34.2421 39.4392 34.1074 39.7721 33.9803C39.7175 33.6269 39.6704 33.2773 39.6361 32.9354C39.2422 29.0432 40.18 26.234 42.2755 25.0239C44.62 23.6702 47.9315 24.6528 51.2798 27.3323ZM41.419 47.842C41.3898 48.0606 41.3631 48.2754 41.3428 48.489C41.0225 51.6089 41.6731 53.8837 43.1149 54.7317L43.1357 54.7416C44.672 55.6289 47.202 54.9234 49.971 52.784C48.7064 51.5933 47.5459 50.2966 46.5019 48.9085C44.7802 48.6989 43.0797 48.3421 41.419 47.842ZM42.7138 42.7917C42.312 43.8902 41.9823 45.0138 41.7265 46.1552C42.8239 46.4965 43.9421 46.7662 45.0743 46.9632L45.1283 46.975C44.6949 46.3153 44.2693 45.6213 43.8575 44.917C43.4458 44.2129 43.0671 43.5024 42.7138 42.7917ZM40.1012 35.6937C39.8979 35.7785 39.6984 35.8633 39.5027 35.948C36.6372 37.2408 34.9853 38.9454 34.9853 40.6257C34.9853 42.399 36.8621 44.2396 40.1 45.568C40.4992 43.8774 41.0417 42.2242 41.7214 40.6257C41.043 39.0306 40.5009 37.3806 40.1012 35.6937ZM45.1219 34.2854C43.9744 34.486 42.841 34.7608 41.7291 35.1078C41.9806 36.227 42.3033 37.329 42.6951 38.4072L42.7075 38.4585C43.0659 37.7466 43.4407 37.045 43.8512 36.3344C44.2616 35.6238 44.6873 34.9425 45.1219 34.2854ZM44.6568 26.1362C44.1245 26.1238 43.5983 26.2527 43.1319 26.5099C41.6839 27.3468 41.0264 29.6127 41.339 32.7259L41.3389 32.7626C41.3592 32.9761 41.3859 33.191 41.4152 33.4083C43.0765 32.9115 44.7769 32.556 46.4982 32.3456C47.5427 30.957 48.704 29.6604 49.9696 28.47C47.9836 26.9345 46.1194 26.1362 44.6568 26.1362ZM59.4316 26.5086C58.9691 26.253 58.4474 26.1241 57.9192 26.1346L57.9055 26.1349C56.4428 26.1349 54.5787 26.9332 52.5924 28.4687C53.8572 29.6583 55.0179 30.9541 56.0616 32.3418C57.7832 32.5512 59.4839 32.908 61.1446 33.4083C61.1751 33.191 61.2004 32.9749 61.2222 32.7613C61.5398 29.628 60.8867 27.3488 59.4316 26.5086ZM51.2735 29.5746C50.4138 30.3682 49.6074 31.2174 48.8591 32.1168C49.6519 32.066 50.457 32.0406 51.2735 32.0406C52.097 32.0406 52.9039 32.0685 53.6943 32.1168C52.9439 31.2172 52.1354 30.3679 51.2735 29.5746Z" fill="#4EDEFF"/>
</g>
</g>
<path d="M78.5653 50.1677V33.0185H85.0912C86.3188 33.0185 87.3777 33.2372 88.2678 33.6746C89.1655 34.1043 89.8561 34.7181 90.3395 35.5161C90.8229 36.3141 91.0646 37.2617 91.0646 38.3589C91.0646 39.4485 90.8075 40.3923 90.2935 41.1903C89.7794 41.9883 89.0619 42.6021 88.1412 43.0318C87.2204 43.4615 86.1462 43.6763 84.9185 43.6763H80.0385V41.501H84.9876C85.7242 41.501 86.3572 41.3744 86.8866 41.1212C87.4238 40.868 87.8343 40.5074 88.1182 40.0393C88.4021 39.5636 88.544 39.0035 88.544 38.3589C88.544 37.7144 88.3982 37.1619 88.1067 36.7016C87.8228 36.2335 87.4122 35.8729 86.8751 35.6197C86.3457 35.3588 85.7127 35.2284 84.9761 35.2284H81.1204V50.1677H78.5653ZM88.4519 50.1677L84.3891 42.4448H87.1859L91.3293 50.1677H88.4519ZM97.8727 50.4439C96.668 50.4439 95.6322 50.1715 94.7651 49.6267C93.9057 49.0819 93.242 48.3338 92.774 47.3824C92.3136 46.4232 92.0834 45.3337 92.0834 44.1137C92.0834 42.8706 92.3251 41.7734 92.8085 40.822C93.2919 39.8628 93.9595 39.1109 94.8112 38.5661C95.6629 38.0136 96.6412 37.7374 97.7461 37.7374C98.6055 37.7374 99.3804 37.8909 100.071 38.1978C100.769 38.5047 101.368 38.9421 101.866 39.5099C102.365 40.07 102.749 40.7376 103.017 41.5125C103.286 42.2875 103.42 43.1469 103.42 44.0907V44.7467H93.1768V42.9052H102.143L101.072 43.4691C101.072 42.7172 100.938 42.065 100.669 41.5125C100.401 40.9524 100.017 40.5227 99.5185 40.2235C99.0275 39.9165 98.4443 39.7631 97.7691 39.7631C97.1015 39.7631 96.5222 39.9165 96.0312 40.2235C95.5401 40.5227 95.1564 40.9524 94.8802 41.5125C94.6117 42.065 94.4774 42.7172 94.4774 43.4691V44.5165C94.4774 45.2838 94.6117 45.9629 94.8802 46.5537C95.1488 47.1368 95.5363 47.5934 96.0427 47.9233C96.5568 48.2533 97.1783 48.4182 97.9072 48.4182C98.4366 48.4182 98.9047 48.3377 99.3114 48.1765C99.718 48.0077 100.056 47.7775 100.324 47.486C100.593 47.1944 100.785 46.8568 100.9 46.4731H103.236C103.09 47.2558 102.764 47.9463 102.258 48.5448C101.759 49.1356 101.13 49.5999 100.37 49.9375C99.6183 50.2751 98.7858 50.4439 97.8727 50.4439ZM109.135 50.3633C108.329 50.3633 107.608 50.2252 106.971 49.949C106.342 49.6728 105.843 49.2623 105.475 48.7175C105.107 48.1727 104.922 47.4975 104.922 46.6918C104.922 46.0012 105.053 45.4334 105.314 44.9884C105.582 44.5434 105.943 44.1904 106.396 43.9295C106.848 43.6686 107.362 43.473 107.938 43.3425C108.513 43.2044 109.108 43.1008 109.722 43.0318C110.489 42.932 111.092 42.8553 111.529 42.8016C111.974 42.7402 112.289 42.6481 112.473 42.5254C112.665 42.3949 112.76 42.1839 112.76 41.8923V41.7888C112.76 41.3974 112.665 41.0522 112.473 40.7529C112.281 40.446 112.001 40.2043 111.633 40.0278C111.264 39.8513 110.823 39.7631 110.309 39.7631C109.795 39.7631 109.338 39.8475 108.939 40.0163C108.548 40.1851 108.233 40.4191 107.996 40.7184C107.765 41.0099 107.635 41.3437 107.604 41.7197H105.222C105.26 40.9447 105.494 40.2618 105.924 39.671C106.353 39.0802 106.944 38.616 107.696 38.2784C108.448 37.9408 109.331 37.7719 110.343 37.7719C111.088 37.7719 111.759 37.8679 112.358 38.0597C112.956 38.2515 113.463 38.5277 113.877 38.8884C114.299 39.2413 114.617 39.6672 114.832 40.1659C115.055 40.6647 115.166 41.221 115.166 41.8348V50.1677H112.772V48.4412H112.726C112.557 48.7712 112.327 49.0819 112.035 49.3735C111.744 49.6651 111.36 49.9029 110.884 50.0871C110.416 50.2712 109.833 50.3633 109.135 50.3633ZM109.63 48.4067C110.343 48.4067 110.93 48.2801 111.391 48.0269C111.859 47.766 112.204 47.4246 112.427 47.0026C112.657 46.5805 112.772 46.1202 112.772 45.6214V44.1942C112.688 44.2633 112.549 44.3285 112.358 44.3899C112.173 44.4436 111.947 44.4973 111.679 44.551C111.41 44.5971 111.118 44.6469 110.804 44.7007C110.489 44.7544 110.175 44.8004 109.86 44.8388C109.415 44.9002 109.001 45.0037 108.617 45.1495C108.233 45.2876 107.923 45.4833 107.685 45.7365C107.455 45.9897 107.339 46.3235 107.339 46.7378C107.339 47.0831 107.432 47.3824 107.616 47.6356C107.8 47.8811 108.065 48.0729 108.41 48.2111C108.755 48.3415 109.162 48.4067 109.63 48.4067ZM122.872 50.4439C121.713 50.4439 120.7 50.1753 119.833 49.6382C118.966 49.1011 118.287 48.3568 117.796 47.4054C117.313 46.4463 117.071 45.349 117.071 44.1137C117.071 42.863 117.313 41.7581 117.796 40.7989C118.287 39.8398 118.966 39.0917 119.833 38.5546C120.7 38.0098 121.713 37.7374 122.872 37.7374C123.593 37.7374 124.261 37.8487 124.874 38.0712C125.496 38.286 126.041 38.593 126.509 38.992C126.977 39.3833 127.353 39.8513 127.637 40.3961C127.928 40.9332 128.112 41.524 128.189 42.1686H125.772C125.711 41.8233 125.603 41.5087 125.45 41.2248C125.296 40.9409 125.097 40.6954 124.851 40.4882C124.606 40.281 124.318 40.1199 123.988 40.0048C123.666 39.8897 123.298 39.8321 122.883 39.8321C122.185 39.8321 121.587 40.0086 121.088 40.3616C120.589 40.7145 120.205 41.2133 119.937 41.8578C119.668 42.4947 119.534 43.2466 119.534 44.1137C119.534 44.973 119.668 45.7212 119.937 46.358C120.205 46.9872 120.589 47.4783 121.088 47.8312C121.587 48.1765 122.185 48.3492 122.883 48.3492C123.298 48.3492 123.666 48.2955 123.988 48.188C124.31 48.0729 124.587 47.9118 124.817 47.7046C125.047 47.4975 125.239 47.2519 125.392 46.968C125.546 46.6765 125.661 46.3542 125.738 46.0012H128.189C128.12 46.6381 127.94 47.2251 127.648 47.7622C127.364 48.2993 126.984 48.7712 126.509 49.1778C126.041 49.5768 125.496 49.8876 124.874 50.1101C124.261 50.3326 123.593 50.4439 122.872 50.4439ZM135.883 38.0136V40.0163H128.84V38.0136H135.883ZM130.98 34.6989H133.409V46.9565C133.409 47.4016 133.501 47.7161 133.685 47.9003C133.877 48.0768 134.215 48.165 134.698 48.165C134.882 48.165 135.085 48.165 135.308 48.165C135.53 48.165 135.722 48.165 135.883 48.165V50.1677C135.684 50.1677 135.442 50.1677 135.158 50.1677C134.882 50.1677 134.614 50.1677 134.353 50.1677C133.209 50.1677 132.362 49.9298 131.809 49.4541C131.257 48.9707 130.98 48.2417 130.98 47.2673V34.6989ZM148.694 50.1677H144.47V47.9463H148.533C149.868 47.9463 150.969 47.6931 151.836 47.1867C152.703 46.6803 153.351 45.9514 153.781 44.9999C154.211 44.0408 154.426 42.8975 154.426 41.5701C154.426 40.2426 154.215 39.107 153.793 38.1633C153.371 37.2195 152.734 36.4982 151.882 35.9995C151.038 35.4931 149.979 35.2399 148.705 35.2399H144.378V33.0185H148.867C150.547 33.0185 151.993 33.3638 153.206 34.0544C154.426 34.7373 155.362 35.7194 156.014 37.0008C156.666 38.2745 156.992 39.7976 156.992 41.5701C156.992 43.3425 156.662 44.8733 156.002 46.1624C155.35 47.4438 154.407 48.4336 153.171 49.1318C151.936 49.8224 150.443 50.1677 148.694 50.1677ZM145.702 33.0185V50.1677H143.146V33.0185H145.702ZM164.284 50.4439C163.125 50.4439 162.109 50.1753 161.234 49.6382C160.359 49.1011 159.676 48.3568 159.185 47.4054C158.702 46.4539 158.46 45.3567 158.46 44.1137C158.46 42.8553 158.702 41.7504 159.185 40.7989C159.676 39.8398 160.359 39.0917 161.234 38.5546C162.109 38.0098 163.125 37.7374 164.284 37.7374C165.442 37.7374 166.455 38.0098 167.322 38.5546C168.197 39.0917 168.876 39.8398 169.359 40.7989C169.851 41.7504 170.096 42.8553 170.096 44.1137C170.096 45.3567 169.851 46.4539 169.359 47.4054C168.876 48.3568 168.197 49.1011 167.322 49.6382C166.455 50.1753 165.442 50.4439 164.284 50.4439ZM164.284 48.3492C164.974 48.3492 165.569 48.1765 166.068 47.8312C166.574 47.4783 166.962 46.9834 167.23 46.3465C167.506 45.7097 167.645 44.9654 167.645 44.1137C167.645 43.239 167.506 42.4832 167.23 41.8463C166.962 41.2094 166.574 40.7145 166.068 40.3616C165.569 40.0086 164.974 39.8321 164.284 39.8321C163.593 39.8321 162.995 40.0086 162.488 40.3616C161.99 40.7069 161.602 41.2018 161.326 41.8463C161.057 42.4832 160.923 43.239 160.923 44.1137C160.923 44.973 161.057 45.7212 161.326 46.358C161.602 46.9872 161.99 47.4783 162.488 47.8312C162.987 48.1765 163.586 48.3492 164.284 48.3492ZM177.215 50.4439C176.056 50.4439 175.043 50.1753 174.176 49.6382C173.309 49.1011 172.63 48.3568 172.139 47.4054C171.656 46.4463 171.414 45.349 171.414 44.1137C171.414 42.863 171.656 41.7581 172.139 40.7989C172.63 39.8398 173.309 39.0917 174.176 38.5546C175.043 38.0098 176.056 37.7374 177.215 37.7374C177.936 37.7374 178.604 37.8487 179.218 38.0712C179.839 38.286 180.384 38.593 180.852 38.992C181.32 39.3833 181.696 39.8513 181.98 40.3961C182.271 40.9332 182.456 41.524 182.532 42.1686H180.115C180.054 41.8233 179.947 41.5087 179.793 41.2248C179.64 40.9409 179.44 40.6954 179.195 40.4882C178.949 40.281 178.661 40.1199 178.331 40.0048C178.009 39.8897 177.641 39.8321 177.226 39.8321C176.528 39.8321 175.93 40.0086 175.431 40.3616C174.932 40.7145 174.549 41.2133 174.28 41.8578C174.011 42.4947 173.877 43.2466 173.877 44.1137C173.877 44.973 174.011 45.7212 174.28 46.358C174.549 46.9872 174.932 47.4783 175.431 47.8312C175.93 48.1765 176.528 48.3492 177.226 48.3492C177.641 48.3492 178.009 48.2955 178.331 48.188C178.654 48.0729 178.93 47.9118 179.16 47.7046C179.39 47.4975 179.582 47.2519 179.736 46.968C179.889 46.6765 180.004 46.3542 180.081 46.0012H182.532C182.463 46.6381 182.283 47.2251 181.991 47.7622C181.707 48.2993 181.328 48.7712 180.852 49.1778C180.384 49.5768 179.839 49.8876 179.218 50.1101C178.604 50.3326 177.936 50.4439 177.215 50.4439ZM190.227 38.0136V40.0163H183.183V38.0136H190.227ZM185.324 34.6989H187.752V46.9565C187.752 47.4016 187.844 47.7161 188.028 47.9003C188.22 48.0768 188.558 48.165 189.041 48.165C189.225 48.165 189.429 48.165 189.651 48.165C189.874 48.165 190.066 48.165 190.227 48.165V50.1677C190.027 50.1677 189.785 50.1677 189.502 50.1677C189.225 50.1677 188.957 50.1677 188.696 50.1677C187.553 50.1677 186.705 49.9298 186.152 49.4541C185.6 48.9707 185.324 48.2417 185.324 47.2673V34.6989ZM196.931 50.4439C195.773 50.4439 194.756 50.1753 193.881 49.6382C193.006 49.1011 192.324 48.3568 191.832 47.4054C191.349 46.4539 191.107 45.3567 191.107 44.1137C191.107 42.8553 191.349 41.7504 191.832 40.7989C192.324 39.8398 193.006 39.0917 193.881 38.5546C194.756 38.0098 195.773 37.7374 196.931 37.7374C198.09 37.7374 199.103 38.0098 199.97 38.5546C200.844 39.0917 201.523 39.8398 202.007 40.7989C202.498 41.7504 202.743 42.8553 202.743 44.1137C202.743 45.3567 202.498 46.4539 202.007 47.4054C201.523 48.3568 200.844 49.1011 199.97 49.6382C199.103 50.1753 198.09 50.4439 196.931 50.4439ZM196.931 48.3492C197.622 48.3492 198.216 48.1765 198.715 47.8312C199.222 47.4783 199.609 46.9834 199.878 46.3465C200.154 45.7097 200.292 44.9654 200.292 44.1137C200.292 43.239 200.154 42.4832 199.878 41.8463C199.609 41.2094 199.222 40.7145 198.715 40.3616C198.216 40.0086 197.622 39.8321 196.931 39.8321C196.241 39.8321 195.642 40.0086 195.136 40.3616C194.637 40.7069 194.249 41.2018 193.973 41.8463C193.705 42.4832 193.57 43.239 193.57 44.1137C193.57 44.973 193.705 45.7212 193.973 46.358C194.249 46.9872 194.637 47.4783 195.136 47.8312C195.634 48.1765 196.233 48.3492 196.931 48.3492ZM204.66 50.1677V38.0136H206.985V39.9818H207.031C207.253 39.3142 207.603 38.7963 208.078 38.428C208.562 38.052 209.191 37.864 209.966 37.864C210.15 37.864 210.319 37.8717 210.472 37.887C210.633 37.8947 210.76 37.9062 210.852 37.9216V40.1889C210.76 40.1659 210.595 40.1429 210.357 40.1199C210.119 40.0892 209.858 40.0738 209.575 40.0738C209.122 40.0738 208.704 40.1774 208.32 40.3846C207.944 40.5918 207.645 40.9102 207.422 41.3399C207.2 41.7696 207.089 42.3182 207.089 42.9857V50.1677H204.66Z" fill="#F4FDFF"/>
<g clip-path="url(#clip0_2_253)">
<path d="M58.9609 54.9219C64.459 54.9219 68.9219 50.459 68.9219 44.9609C68.9219 39.4629 64.459 35 58.9609 35C53.4629 35 49 39.4629 49 44.9609C49 50.459 53.4629 54.9219 58.9609 54.9219ZM58.9609 53.2617C54.3711 53.2617 50.6602 49.5508 50.6602 44.9609C50.6602 40.3711 54.3711 36.6602 58.9609 36.6602C63.5508 36.6602 67.2617 40.3711 67.2617 44.9609C67.2617 49.5508 63.5508 53.2617 58.9609 53.2617Z" fill="#4EDEFF"/>
<path d="M53.5605 45.9863C53.5605 46.582 53.9707 46.9824 54.5566 46.9824H56.9102V49.3262C56.9102 49.9414 57.3105 50.332 57.9062 50.332H59.9766C60.582 50.332 60.9727 49.9414 60.9727 49.3262V46.9824H63.3262C63.9316 46.9824 64.332 46.582 64.332 45.9863V43.9063C64.332 43.3203 63.9316 42.9102 63.3262 42.9102H60.9727V40.5762C60.9727 39.9707 60.582 39.5703 59.9766 39.5703H57.9062C57.3105 39.5703 56.9102 39.9707 56.9102 40.5762V42.9102H54.5566C53.9609 42.9102 53.5605 43.3203 53.5605 43.9063V45.9863Z" fill="#4EDEFF"/>
</g>
<rect x="47.5" y="33.5" width="23.2832" height="22.9316" rx="11.4658" stroke="#00242C" stroke-width="3"/>
<defs>
<clipPath id="clip0_2_253">
<rect x="49" y="35" width="20.2832" height="19.9316" rx="9.9658" fill="white"/>
</clipPath>
</defs>
</svg>
